<svg xmlns="http://www.w3.org/2000/svg" viewBox="0 0 509.74 509.74"><defs><style>.cls-1{fill:#fff;}</style></defs><title>Recurso 3</title><g id="Capa_2" data-name="Capa 2"><g id="Capa_1-2" data-name="Capa 1"><path class="cls-1" d="M285.81,330.48c-1.44-4.8-1.14-9.44-2.77-13.68-1.31-3.38-2.4-6.9-5.33-9.32s-5.42-1.91-6.92,1.6c-2,4.73-1.13,9.18,2,13.16a22.89,22.89,0,0,0,4.29,4.39c5,3.64,4.93,8.41,3.68,13.72A32.92,32.92,0,0,1,275,352.46c-5.29,7.1-11,13.87-17.27,21.69-.56-25.49-4-49.8,4-73.64,2.73-8.11,7.07-14.15,15-17.66,5.63-2.51,10.23-6.18,11.89-12.54.07-.28.27-.53.33-.81,1.62-7.16-1.86-10.65-8.65-8.52-7.5,2.34-11.54,8-13.93,15.1-1.85,5.49-3.08,11.17-5.22,16.58-2.08,5.25-3.8,10.65-5.88,16.57-1.8-4.81-2-9.49-2.59-14-.92-6.68-.68-13.45-.43-20.18.09-2.43,2.13-3.72,3.48-5.38,7.33-9.05,8.32-17.41,3.07-26.58-2.36-4.11-5.23-4.59-8.84-1.46-5.33,4.6-7.85,16.27-4.32,23.6,3.71,7.7,3.64,15.6,3.19,24.31-5.3-4-9.34-8-10.66-14.43-1.8-8.73-7.27-14.33-16.08-16.52-3.05-.76-4.62.16-5.29,3.34-1.38,6.59,3.14,14.38,10.92,18.19,3,1.46,6.26,2.43,9.12,4.1,8.34,4.85,12.11,12.79,13.61,21.87,3.21,19.37,2.18,38.8.23,58.22-.2,2-.19,4-.33,7.17-9.17-11.3-18.08-21.59-20-35.84-.79-5.8,1.69-10.44,5.44-14.66,3.57-4,5.4-8.62,3.52-14.09-.54-1.58-.33-3.71-2.76-3.88-2.12-.14-3.57,1.07-4.74,2.68-3,4.13-3.63,9.12-5,13.83a68.64,68.64,0,0,0-1.23,7.4,61,61,0,0,1-6.72-25.6c-.56-11.66-10-21-20.92-21.14-3.93-.05-5.5,1.82-5.45,5.12.14,7.51,2,14.41,8.43,19.24a19.33,19.33,0,0,0,3.3,2.13c9,4.2,14.37,11.27,17.39,20.65,2.47,7.69,5.72,15.13,8.82,23.22-11.08-5.39-20.83-11.63-27.35-21.9-5.07-8-11.74-13.23-21.66-13.19a14.72,14.72,0,0,0-1.76.05c-8,.95-9,3.26-4.84,9.94,5.07,8.08,12.57,11.71,21.71,11.67A19.69,19.69,0,0,1,212,343.76c2.55,2.72,5.64,4.94,8.36,7.85-4.58-1.79-9-.18-13.45-.05a18.47,18.47,0,0,1-8-1.55c-9.84-4.19-20.1-2.29-26.61,4.6-5.29,5.59-4.63,8.55,2.72,10.59,7.75,2.16,15.49,1.41,21.33-4.27,13.92-13.54,36.82-6.16,46.28,9.87,4.28,7.25,5.88,15.27,5.9,23.42a213.39,213.39,0,0,1-3.16,38c-.29,1.62-.55,2.62-2.45,2.94-15.74,2.62-30.94,7.55-46.52,10.91-22.58,4.87-44.21,3.54-63.12-11.26s-27.06-34.37-24.62-58.39c2.23-22,12.7-40.21,25.95-57.1,16.49-21,34.89-40.52,49.7-62.91a111.23,111.23,0,0,1,23-25.77c17-13.62,36.3-18.24,57.73-15.86,24.53,2.73,41.93,16.85,55.74,35.65,16.62,22.65,34.4,44.31,52.35,65.87,12.87,15.47,22.3,32.8,26.6,52.75,7.85,36.52-14.69,71.44-51,78.23-16.4,3.06-32.47.44-48.37-3.85-11.32-3-22.54-6.59-34.19-8.28-1.37-.2-2.13-.69-2.35-2.07-2.42-15.3-5.35-30.63-2.58-46.16,1.76-9.86,7.22-17,17.21-20.12,6.34-2,16.72-.28,20.56,7.28,4.49,8.84,12.25,11.52,21.58,10.85,5.48-.39,6.4-1.8,4.7-7-2.52-7.69-12.88-14.2-21.49-12-6.49,1.63-11-2.4-16.61-3.11,6.34-2.94,11.47-8.6,19.16-7.73,3,.35,6,.94,9,1.43,7.31,1.17,16.67-2.87,20.4-8.44,1.58-2.37.86-3.7-1.1-5.05-7.7-5.31-19.7-4.6-26.16,2.12-7,7.23-15.45,11.77-24.67,15.09-4,1.46-7.66,4.11-12.09,4.52a106.7,106.7,0,0,1,29.93-30.46c6.29-4.35,13.54-5,20.61-6.45s11.58-5.84,14.58-12c2.25-4.62,1.21-6.38-3.84-7.32-8-1.49-18,2.07-21.52,9.47-5,10.66-14.87,15.62-24.13,23.21,3.94-11.93,5.27-23.64,14.62-32.07,6.53-5.89,7.6-14,6.47-22.22-.83-6.11-4.35-7.61-9.88-4.83a20,20,0,0,0-9.85,25.69C292.18,316.64,291.62,321.73,285.81,330.48Zm-81.89,50.06c9.42-.09,17.16-5.8,19.07-13.65.63-2.58.51-4.7-3-4.66-8.07.09-15.19,2.41-20.24,9.07-1.62,2.14-3.85,5-2.5,7.4C198.43,380.71,201.88,380.51,203.92,380.54Z"/><path class="cls-1" d="M144.8,124c.08-15.74,2-29,8.18-41.4,6.84-13.78,17.27-22.23,33.45-21.42,9.32.47,17,5,23.59,11.11,16.89,15.71,26.53,35.38,30.79,57.86,3.39,17.91,2.38,35.42-5.44,52.1-5.62,12-14.11,20.86-27.83,23.53-11.9,2.31-21.78-1.87-30.61-9.27-17.06-14.29-25.8-33.29-30.22-54.57C145.35,135.38,144.49,128.7,144.8,124Z"/><path class="cls-1" d="M267.1,147.82c.94-27.06,9.1-50.81,27-70.64,7.78-8.58,17.09-15.21,29.19-15.93,14.79-.89,26.9,7.17,33.66,22.45s8.76,31.19,7.15,47.8c-1.8,18.62-7.53,35.65-18.52,50.88a66.5,66.5,0,0,1-17.74,17.38c-19.2,12.39-40,6.9-51.17-13.15C269.86,174.31,267.63,161,267.1,147.82Z"/><path class="cls-1" d="M351.55,244.81c.63-22.67,8.94-42.35,23.42-59.62,8.86-10.57,19.25-18.95,32.64-23.13,17.7-5.51,33.75.05,41.38,14.68,5.18,9.94,5.64,20.78,4.46,31.59C451.3,228,444,245.68,431,260.76c-9.8,11.39-20.65,21.4-36,24.81-19.34,4.29-36.34-6-41.54-25.17A47.67,47.67,0,0,1,351.55,244.81Z"/><path class="cls-1" d="M158.13,245.15c.17,10-2,19.43-8,27.54-10.12,13.61-26.55,17.81-42.5,10.63-18.87-8.5-31.94-23.05-41.35-41.16a89.51,89.51,0,0,1-10.19-49.75c1.26-14.81,9.36-27.73,23.46-31.27,10.85-2.72,21.13-.84,30.64,4.66,26.65,15.42,41.54,39,47.13,68.89A63.47,63.47,0,0,1,158.13,245.15Z"/><path class="cls-1" d="M509.74,254.87c0,140.76-114.11,254.87-254.87,254.87S0,395.63,0,254.87,114.11,0,254.87,0,509.74,114.11,509.74,254.87Zm-254.87-235c-129.76,0-235,105.2-235,235s105.2,235,235,235,235-105.2,235-235S384.63,19.91,254.87,19.91Z"/></g></g></svg>